<mxfile host="app.diagrams.net" agent="Mozilla/5.0 (Windows NT 10.0; Win64; x64) AppleWebKit/537.36 (KHTML, like Gecko) Chrome/122.0.0.0 Safari/537.36" version="27.0.5">
  <diagram name="Trang-1" id="w5AbWpbjVQvUzp7F3cHn">
    <mxGraphModel dx="1693" dy="2059" grid="1" gridSize="10" guides="1" tooltips="1" connect="1" arrows="1" fold="1" page="1" pageScale="1" pageWidth="827" pageHeight="1169" math="0" shadow="0">
      <root>
        <mxCell id="0" />
        <mxCell id="1" parent="0" />
        <mxCell id="4_RhDtYP9sCT3sCQWThU-44" style="edgeStyle=none;rounded=0;orthogonalLoop=1;jettySize=auto;html=1;exitX=1;exitY=0.5;exitDx=0;exitDy=0;entryX=0;entryY=0.5;entryDx=0;entryDy=0;" edge="1" parent="1" source="KSIeV_VOO5f_KRZ-ujvA-1" target="4_RhDtYP9sCT3sCQWThU-39">
          <mxGeometry relative="1" as="geometry" />
        </mxCell>
        <mxCell id="KSIeV_VOO5f_KRZ-ujvA-1" value="&lt;span style=&quot;font-size: 11px;&quot;&gt;CarEngineRepair&lt;/span&gt;" style="rounded=0;whiteSpace=wrap;html=1;" parent="1" vertex="1">
          <mxGeometry x="333" y="130" width="160" height="30" as="geometry" />
        </mxCell>
        <mxCell id="Qe30km0hDxkmMOu-Ls59-4" value="&lt;font style=&quot;font-size: 10px;&quot;&gt;interface&lt;/font&gt;&lt;div&gt;&lt;font style=&quot;font-size: 11px;&quot;&gt;ServiceFactory&lt;/font&gt;&lt;/div&gt;&lt;div&gt;&lt;br&gt;&lt;/div&gt;&lt;div&gt;&lt;div&gt;&lt;span style=&quot;font-size: 11px;&quot;&gt;+CreateCarService():CarService&lt;/span&gt;&lt;br&gt;&lt;/div&gt;&lt;div&gt;&lt;span style=&quot;font-size: 11px;&quot;&gt;+CreateBicyleService():BicyleService&lt;/span&gt;&lt;span style=&quot;font-size: 11px;&quot;&gt;&lt;br&gt;&lt;/span&gt;&lt;/div&gt;&lt;/div&gt;" style="rounded=0;whiteSpace=wrap;html=1;" parent="1" vertex="1">
          <mxGeometry x="560" y="-100" width="190" height="100" as="geometry" />
        </mxCell>
        <mxCell id="Qe30km0hDxkmMOu-Ls59-9" value="&lt;div&gt;&lt;div&gt;CarServiceFactory&lt;/div&gt;&lt;div&gt;&lt;br&gt;&lt;/div&gt;&lt;div&gt;&lt;div&gt;&lt;span style=&quot;font-size: 11px;&quot;&gt;+CreateCarService():CarService&lt;/span&gt;&lt;br&gt;&lt;/div&gt;&lt;div&gt;&lt;span style=&quot;font-size: 11px;&quot;&gt;+CreateBicyleService():BicyleService&lt;/span&gt;&lt;/div&gt;&lt;/div&gt;&lt;/div&gt;" style="rounded=0;whiteSpace=wrap;html=1;" parent="1" vertex="1">
          <mxGeometry x="330" y="10" width="195" height="80" as="geometry" />
        </mxCell>
        <mxCell id="Qe30km0hDxkmMOu-Ls59-11" value="&lt;div&gt;&lt;div&gt;BicyleService&lt;span style=&quot;background-color: transparent;&quot;&gt;Factory&lt;/span&gt;&lt;/div&gt;&lt;div&gt;&lt;br&gt;&lt;/div&gt;&lt;div&gt;&lt;div&gt;&lt;div&gt;&lt;span style=&quot;font-size: 11px;&quot;&gt;+CreateCarService():CarService&lt;/span&gt;&lt;br&gt;&lt;/div&gt;&lt;div&gt;&lt;span style=&quot;font-size: 11px;&quot;&gt;+CreateBicyleService():BicyleService&lt;/span&gt;&lt;/div&gt;&lt;/div&gt;&lt;/div&gt;&lt;/div&gt;" style="rounded=0;whiteSpace=wrap;html=1;" parent="1" vertex="1">
          <mxGeometry x="710" y="20" width="190" height="80" as="geometry" />
        </mxCell>
        <mxCell id="Qe30km0hDxkmMOu-Ls59-13" value="" style="endArrow=none;dashed=1;html=1;dashPattern=1 3;strokeWidth=2;rounded=0;" parent="1" edge="1">
          <mxGeometry width="50" height="50" relative="1" as="geometry">
            <mxPoint x="400" y="100" as="sourcePoint" />
            <mxPoint x="400" y="100" as="targetPoint" />
          </mxGeometry>
        </mxCell>
        <mxCell id="Qe30km0hDxkmMOu-Ls59-37" value="&lt;div&gt;&lt;div&gt;Client&lt;/div&gt;&lt;div&gt;factory:ServiceFactory&lt;/div&gt;&lt;div&gt;+Client:ServiceFactory&lt;/div&gt;&lt;div&gt;+PerfomService()&lt;/div&gt;&lt;/div&gt;" style="rounded=0;whiteSpace=wrap;html=1;" parent="1" vertex="1">
          <mxGeometry x="585" y="-230" width="140" height="80" as="geometry" />
        </mxCell>
        <mxCell id="4_RhDtYP9sCT3sCQWThU-2" value="" style="endArrow=classic;html=1;rounded=0;exitX=0.5;exitY=1;exitDx=0;exitDy=0;" edge="1" parent="1" source="Qe30km0hDxkmMOu-Ls59-37" target="Qe30km0hDxkmMOu-Ls59-4">
          <mxGeometry width="50" height="50" relative="1" as="geometry">
            <mxPoint x="715" y="-90" as="sourcePoint" />
            <mxPoint x="545" y="-90" as="targetPoint" />
          </mxGeometry>
        </mxCell>
        <mxCell id="4_RhDtYP9sCT3sCQWThU-46" style="edgeStyle=none;rounded=0;orthogonalLoop=1;jettySize=auto;html=1;exitX=1;exitY=0.5;exitDx=0;exitDy=0;entryX=0;entryY=0.5;entryDx=0;entryDy=0;" edge="1" parent="1" source="4_RhDtYP9sCT3sCQWThU-11" target="4_RhDtYP9sCT3sCQWThU-42">
          <mxGeometry relative="1" as="geometry" />
        </mxCell>
        <mxCell id="4_RhDtYP9sCT3sCQWThU-11" value="&lt;span style=&quot;font-size: 11px;&quot;&gt;BicyleRepair&lt;/span&gt;" style="rounded=0;whiteSpace=wrap;html=1;" vertex="1" parent="1">
          <mxGeometry x="333" y="240" width="160" height="30" as="geometry" />
        </mxCell>
        <mxCell id="4_RhDtYP9sCT3sCQWThU-47" style="edgeStyle=none;rounded=0;orthogonalLoop=1;jettySize=auto;html=1;exitX=0;exitY=0.25;exitDx=0;exitDy=0;" edge="1" parent="1" source="4_RhDtYP9sCT3sCQWThU-12" target="4_RhDtYP9sCT3sCQWThU-42">
          <mxGeometry relative="1" as="geometry" />
        </mxCell>
        <mxCell id="4_RhDtYP9sCT3sCQWThU-12" value="&lt;span style=&quot;font-size: 11px;&quot;&gt;BicyleRepair&lt;/span&gt;" style="rounded=0;whiteSpace=wrap;html=1;" vertex="1" parent="1">
          <mxGeometry x="780" y="240" width="160" height="30" as="geometry" />
        </mxCell>
        <mxCell id="4_RhDtYP9sCT3sCQWThU-45" style="edgeStyle=none;rounded=0;orthogonalLoop=1;jettySize=auto;html=1;exitX=0;exitY=0.5;exitDx=0;exitDy=0;" edge="1" parent="1" source="4_RhDtYP9sCT3sCQWThU-13" target="4_RhDtYP9sCT3sCQWThU-39">
          <mxGeometry relative="1" as="geometry" />
        </mxCell>
        <mxCell id="4_RhDtYP9sCT3sCQWThU-13" value="&lt;span style=&quot;font-size: 11px;&quot;&gt;CarOilRepair&lt;/span&gt;" style="rounded=0;whiteSpace=wrap;html=1;" vertex="1" parent="1">
          <mxGeometry x="770" y="138.34" width="160" height="30" as="geometry" />
        </mxCell>
        <mxCell id="4_RhDtYP9sCT3sCQWThU-17" value="" style="endArrow=none;dashed=1;html=1;rounded=0;entryX=0;entryY=0.5;entryDx=0;entryDy=0;" edge="1" parent="1" target="Qe30km0hDxkmMOu-Ls59-4">
          <mxGeometry width="50" height="50" relative="1" as="geometry">
            <mxPoint x="430" y="10" as="sourcePoint" />
            <mxPoint x="480" y="-40" as="targetPoint" />
            <Array as="points">
              <mxPoint x="430" y="-50" />
            </Array>
          </mxGeometry>
        </mxCell>
        <mxCell id="4_RhDtYP9sCT3sCQWThU-19" value="" style="endArrow=none;dashed=1;html=1;rounded=0;entryX=1;entryY=0.5;entryDx=0;entryDy=0;exitX=0.75;exitY=0;exitDx=0;exitDy=0;" edge="1" parent="1" source="4_RhDtYP9sCT3sCQWThU-23" target="Qe30km0hDxkmMOu-Ls59-4">
          <mxGeometry width="50" height="50" relative="1" as="geometry">
            <mxPoint x="850" y="-20" as="sourcePoint" />
            <mxPoint x="980" y="-80" as="targetPoint" />
            <Array as="points" />
          </mxGeometry>
        </mxCell>
        <mxCell id="4_RhDtYP9sCT3sCQWThU-20" value="" style="triangle;whiteSpace=wrap;html=1;" vertex="1" parent="1">
          <mxGeometry x="550" y="-56.66" width="10" height="13.33" as="geometry" />
        </mxCell>
        <mxCell id="4_RhDtYP9sCT3sCQWThU-24" value="" style="endArrow=none;dashed=1;html=1;rounded=0;entryX=1;entryY=0.5;entryDx=0;entryDy=0;exitX=0.75;exitY=0;exitDx=0;exitDy=0;" edge="1" parent="1" source="Qe30km0hDxkmMOu-Ls59-11" target="4_RhDtYP9sCT3sCQWThU-23">
          <mxGeometry width="50" height="50" relative="1" as="geometry">
            <mxPoint x="853" y="20" as="sourcePoint" />
            <mxPoint x="750" y="-50" as="targetPoint" />
            <Array as="points">
              <mxPoint x="853" y="-50" />
            </Array>
          </mxGeometry>
        </mxCell>
        <mxCell id="4_RhDtYP9sCT3sCQWThU-23" value="" style="triangle;whiteSpace=wrap;html=1;direction=west;" vertex="1" parent="1">
          <mxGeometry x="750" y="-56.67" width="10" height="13.33" as="geometry" />
        </mxCell>
        <mxCell id="4_RhDtYP9sCT3sCQWThU-25" value="" style="triangle;whiteSpace=wrap;html=1;" vertex="1" parent="1">
          <mxGeometry x="323" y="138.34" width="10" height="13.33" as="geometry" />
        </mxCell>
        <mxCell id="4_RhDtYP9sCT3sCQWThU-26" value="" style="triangle;whiteSpace=wrap;html=1;" vertex="1" parent="1">
          <mxGeometry x="323" y="248.33" width="10" height="13.33" as="geometry" />
        </mxCell>
        <mxCell id="4_RhDtYP9sCT3sCQWThU-27" value="" style="triangle;whiteSpace=wrap;html=1;direction=west;" vertex="1" parent="1">
          <mxGeometry x="930" y="146.67000000000002" width="10" height="13.33" as="geometry" />
        </mxCell>
        <mxCell id="4_RhDtYP9sCT3sCQWThU-28" value="" style="triangle;whiteSpace=wrap;html=1;direction=west;" vertex="1" parent="1">
          <mxGeometry x="940" y="256.67" width="10" height="13.33" as="geometry" />
        </mxCell>
        <mxCell id="4_RhDtYP9sCT3sCQWThU-33" value="" style="endArrow=none;dashed=1;html=1;rounded=0;exitX=0;exitY=0.5;exitDx=0;exitDy=0;" edge="1" parent="1" source="4_RhDtYP9sCT3sCQWThU-25">
          <mxGeometry width="50" height="50" relative="1" as="geometry">
            <mxPoint x="280" y="100" as="sourcePoint" />
            <mxPoint x="330" y="50" as="targetPoint" />
            <Array as="points">
              <mxPoint x="230" y="145" />
              <mxPoint x="230" y="50" />
            </Array>
          </mxGeometry>
        </mxCell>
        <mxCell id="4_RhDtYP9sCT3sCQWThU-34" value="" style="endArrow=none;dashed=1;html=1;rounded=0;entryX=0.263;entryY=0.441;entryDx=0;entryDy=0;entryPerimeter=0;" edge="1" parent="1" target="4_RhDtYP9sCT3sCQWThU-26">
          <mxGeometry width="50" height="50" relative="1" as="geometry">
            <mxPoint x="230" y="140" as="sourcePoint" />
            <mxPoint x="330" y="260" as="targetPoint" />
            <Array as="points">
              <mxPoint x="230" y="255" />
            </Array>
          </mxGeometry>
        </mxCell>
        <mxCell id="4_RhDtYP9sCT3sCQWThU-35" value="" style="endArrow=none;dashed=1;html=1;rounded=0;entryX=1;entryY=0.5;entryDx=0;entryDy=0;exitX=1;exitY=0.5;exitDx=0;exitDy=0;" edge="1" parent="1" source="4_RhDtYP9sCT3sCQWThU-13" target="Qe30km0hDxkmMOu-Ls59-11">
          <mxGeometry width="50" height="50" relative="1" as="geometry">
            <mxPoint x="940" y="180" as="sourcePoint" />
            <mxPoint x="990" y="130" as="targetPoint" />
            <Array as="points">
              <mxPoint x="1030" y="153" />
              <mxPoint x="1030" y="60" />
              <mxPoint x="990" y="60" />
            </Array>
          </mxGeometry>
        </mxCell>
        <mxCell id="4_RhDtYP9sCT3sCQWThU-36" value="" style="endArrow=none;dashed=1;html=1;rounded=0;exitX=1;exitY=0.75;exitDx=0;exitDy=0;" edge="1" parent="1" source="4_RhDtYP9sCT3sCQWThU-12">
          <mxGeometry width="50" height="50" relative="1" as="geometry">
            <mxPoint x="940" y="221.67" as="sourcePoint" />
            <mxPoint x="1030" y="140" as="targetPoint" />
            <Array as="points">
              <mxPoint x="1030" y="263" />
            </Array>
          </mxGeometry>
        </mxCell>
        <mxCell id="4_RhDtYP9sCT3sCQWThU-39" value="interface&lt;div&gt;CarService&lt;/div&gt;&lt;div&gt;+performService():void&lt;/div&gt;" style="rounded=0;whiteSpace=wrap;html=1;" vertex="1" parent="1">
          <mxGeometry x="560" y="120" width="140" height="50" as="geometry" />
        </mxCell>
        <mxCell id="4_RhDtYP9sCT3sCQWThU-42" value="interface&lt;div&gt;BicyleService&lt;/div&gt;&lt;div&gt;+performService():void&lt;/div&gt;" style="rounded=0;whiteSpace=wrap;html=1;" vertex="1" parent="1">
          <mxGeometry x="560" y="230" width="140" height="50" as="geometry" />
        </mxCell>
      </root>
    </mxGraphModel>
  </diagram>
</mxfile>
